<?xml version="1.0" standalone="no"?>
<!DOCTYPE svg PUBLIC "-//W3C//DTD SVG 20010904//EN"
 "http://www.w3.org/TR/2001/REC-SVG-20010904/DTD/svg10.dtd">
<svg version="1.0" xmlns="http://www.w3.org/2000/svg"
 width="647.000000pt" height="647.000000pt" viewBox="0 0 647.000000 647.000000"
 preserveAspectRatio="xMidYMid meet">
<metadata>
Created by potrace 1.14, written by Peter Selinger 2001-2017
</metadata>
<g transform="translate(0.000000,647.000000) scale(0.100000,-0.100000)"
fill="#000000" stroke="none">
<path d="M2315 6459 c-128 -43 -172 -74 -365 -259 -26 -25 -118 -112 -205
-195 -86 -82 -190 -181 -231 -220 -67 -64 -213 -203 -389 -370 -38 -37 -144
-137 -234 -223 -90 -87 -180 -172 -200 -191 -93 -88 -415 -396 -502 -481 -53
-52 -110 -117 -126 -145 -62 -106 -58 34 -58 -2135 l0 -1985 22 -47 c30 -66
95 -132 156 -159 l52 -24 1981 -2 c1778 -3 1986 -1 2030 13 59 19 119 49 159
81 73 59 1940 1933 1969 1978 18 28 42 77 54 110 l22 60 0 1975 0 1975 -24 56
c-12 31 -35 69 -49 85 -15 16 -27 32 -27 36 0 4 -30 22 -67 40 l-68 33 -1935
2 c-1251 1 -1946 -2 -1965 -8z m3685 -2280 l0 -1841 -934 -934 -934 -934
-1841 0 -1841 0 0 1838 0 1839 104 99 c57 54 174 167 261 249 87 83 186 177
220 210 35 33 124 119 200 190 75 72 174 166 220 210 45 44 140 134 210 200
70 66 153 145 184 175 60 58 336 321 481 459 l85 81 1793 0 1792 0 0 -1841z"/>
<path d="M2529 5663 c-1 -5 -2 -105 -3 -223 l-1 -215 1143 -5 1142 -5 -51 -55
c-28 -30 -79 -86 -113 -123 -33 -38 -77 -86 -96 -106 -19 -20 -71 -77 -115
-125 -44 -49 -98 -108 -120 -131 -22 -24 -73 -80 -114 -124 l-74 -81 -1351 0
-1351 0 1 -212 c1 -117 2 -219 3 -226 1 -10 277 -12 1394 -9 765 2 1407 7
1426 12 46 10 141 67 183 108 18 17 80 84 138 147 149 163 197 216 261 285 30
33 75 82 100 109 24 27 53 59 64 70 11 12 39 43 63 69 l42 47 0 -1067 0 -1066
-175 -175 -175 -174 0 329 0 328 -225 0 -226 0 2 -585 c1 -552 2 -588 20 -636
59 -155 248 -211 379 -112 60 45 744 737 774 783 18 27 42 77 54 110 l22 60
-3 1385 -2 1385 -28 57 c-35 71 -77 114 -147 147 l-55 26 -1392 3 c-766 1
-1394 -1 -1394 -5z"/>
<path d="M1002 2450 l3 -1195 24 -53 c29 -65 104 -134 174 -161 47 -18 77 -20
320 -20 286 0 319 5 397 55 94 59 126 116 209 368 l57 171 239 0 239 0 61
-180 c90 -265 116 -309 222 -369 70 -40 121 -46 403 -43 254 2 267 3 317 25
61 28 126 94 156 160 l22 47 3 1195 2 1195 -222 0 -223 0 -3 -1088 -2 -1088
-107 3 -107 3 -58 175 c-32 96 -69 197 -82 225 -33 65 -107 136 -176 166 l-55
24 -390 0 -390 0 -65 -32 c-123 -59 -150 -100 -238 -358 l-68 -200 -107 -3
-107 -3 0 1088 0 1088 -225 0 -225 0 2 -1195z"/>
</g>
</svg>
