<?xml version="1.0" encoding="UTF-8"?>
<!DOCTYPE svg PUBLIC "-//W3C//DTD SVG 1.1//EN" "http://www.w3.org/Graphics/SVG/1.1/DTD/svg11.dtd">
<svg xmlns="http://www.w3.org/2000/svg" xmlns:xlink="http://www.w3.org/1999/xlink" version="1.1" width="605px" height="605px" viewBox="-0.5 -0.5 605 605"><defs/><g><path d="M 1 601 L 401 601 L 601 401 L 601 1 L 201 1 L 1 201 L 1 601" fill="none" stroke="#000000" stroke-width="3" stroke-miterlimit="10" pointer-events="stroke"/><path d="M 1 201 L 41 201 L 41 561 L 401 561 L 401 601" fill="none" stroke="#000000" stroke-width="3" stroke-miterlimit="10" pointer-events="stroke"/><path d="M 601 1 L 581 21 L 581 381 L 401 561 L 401 601" fill="none" stroke="#000000" stroke-width="3" stroke-miterlimit="10" pointer-events="stroke"/><path d="M 601 1 L 581 21 L 221 21 L 41 201" fill="none" stroke="#000000" stroke-width="3" stroke-miterlimit="10" pointer-events="stroke"/><path d="M 581 381 L 541 381 L 381 541 L 61 541 L 41 561" fill="none" stroke="#000000" stroke-width="3" stroke-miterlimit="10" pointer-events="stroke"/><path d="M 581 381 L 541 381 L 541 61 L 221 61 L 61 221 L 61 541 L 41 561" fill="none" stroke="#000000" stroke-width="3" stroke-miterlimit="10" pointer-events="stroke"/><path d="M 221 21 L 221 61" fill="none" stroke="#000000" stroke-width="3" stroke-miterlimit="10" pointer-events="stroke"/><path d="M 81 251 L 81 241 L 101 221 L 141 221 L 141 421" fill="none" stroke="#000000" stroke-width="3" stroke-miterlimit="10" pointer-events="stroke"/><path d="M 121 241 L 141 221" fill="none" stroke="#000000" stroke-width="3" stroke-miterlimit="10" pointer-events="stroke"/><path d="M 261 391 L 281 371" fill="none" stroke="#000000" stroke-width="3" stroke-miterlimit="10" pointer-events="stroke"/><path d="M 341 241 L 361 221" fill="none" stroke="#000000" stroke-width="3" stroke-miterlimit="10" pointer-events="stroke"/><path d="M 361 501 L 361 221" fill="none" stroke="#000000" stroke-width="3" stroke-miterlimit="10" pointer-events="stroke"/><path d="M 161 391 L 181 371 L 281 371 L 302 402" fill="none" stroke="#000000" stroke-width="3" stroke-miterlimit="10" pointer-events="stroke"/><path d="M 121 521 L 141 501 L 188 431" fill="none" stroke="#000000" stroke-width="3" stroke-miterlimit="10" pointer-events="stroke"/><path d="M 401 221 L 401 181" fill="none" stroke="#000000" stroke-width="3" stroke-miterlimit="10" pointer-events="stroke"/><path d="M 121 181 L 401 181 L 521 81" fill="none" stroke="#000000" stroke-width="3" stroke-miterlimit="10" pointer-events="stroke"/><path d="M 121 221 L 121 181 L 141 161 L 381 161 L 461 101 L 201 101" fill="none" stroke="#000000" stroke-width="3" stroke-miterlimit="10" pointer-events="stroke"/><path d="M 408 141 L 201 141 L 201 101 L 221 81 L 521 81 L 521 381 L 401 501 L 361 501" fill="none" stroke="#000000" stroke-width="3" stroke-miterlimit="10" pointer-events="stroke"/><path d="M 142 221 L 402 221 L 502 141 L 502 361 L 422 441 L 422 361 L 382 361 L 362 381" fill="none" stroke="#000000" stroke-width="3" stroke-miterlimit="10" pointer-events="stroke"/><path d="M 361 381 L 401 381" fill="none" stroke="#000000" stroke-width="3" stroke-miterlimit="10" pointer-events="stroke"/><path d="M 501 361 L 461 361 L 461 173" fill="none" stroke="#000000" stroke-width="3" stroke-miterlimit="10" pointer-events="stroke"/><path d="M 401 381 L 421 361" fill="none" stroke="#000000" stroke-width="3" stroke-miterlimit="10" pointer-events="stroke"/><path d="M 401 381 L 401 501" fill="none" stroke="#000000" stroke-width="3" stroke-miterlimit="10" pointer-events="stroke"/><path d="M 421 401 L 461 361" fill="none" stroke="#000000" stroke-width="3" stroke-miterlimit="10" pointer-events="stroke"/><path d="M 82 240 L 122 240 L 122 450 L 162 390 L 262 390 L 302 450 L 302 240 L 322 220" fill="none" stroke="#000000" stroke-width="3" stroke-miterlimit="10" pointer-events="stroke"/><path d="M 301 241 L 341 241 L 341 521" fill="none" stroke="#000000" stroke-width="3" stroke-miterlimit="10" pointer-events="stroke"/><path d="M 81 251 L 81 521 L 121 521 L 181 431 L 241 431 L 301 521 L 341 521 L 361 500" fill="none" stroke="#000000" stroke-width="3" stroke-miterlimit="10" pointer-events="stroke"/><path d="M 1 561 L 1 601 L 31 601" fill="none" stroke="#000000" stroke-width="3" stroke-miterlimit="10" pointer-events="stroke"/></g></svg>